<svg xmlns="http://www.w3.org/2000/svg" width="283" height="64" viewBox="0 0 283 64"><path d="M141.04 16c-11.04 0-19.04 7.04-19.04 17.92 0 10.56 8 17.92 19.04 17.92 6.72 0 12.48-2.56 16-7.04l-7.84-4.48c-1.92 2.56-4.8 4.16-8.16 4.16-4.48 0-7.68-2.24-8.96-6.08h25.6c.32-1.28.32-2.56.32-3.84 0-10.88-8-18.56-17.92-18.56zm-8.96 14.72c1.28-3.84 4.48-6.08 8.96-6.08s7.68 2.24 8.96 6.08h-17.92zm103.68-14.72c-11.04 0-19.04 7.04-19.04 17.92 0 10.56 8 17.92 19.04 17.92 6.72 0 12.48-2.56 16-7.04l-7.84-4.48c-1.92 2.56-4.8 4.16-8.16 4.16-4.48 0-7.68-2.24-8.96-6.08h25.6c.32-1.28.32-2.56.32-3.84 0-10.88-8-18.56-17.92-18.56zm-8.96 14.72c1.28-3.84 4.48-6.08 8.96-6.08s7.68 2.24 8.96 6.08h-17.92zM80 8l40 48H40L80 8z" fill="#fff"/></svg>

